<svg xmlns="http://www.w3.org/2000/svg" viewBox="0 0 320 320" fill="none">
  <g stroke="#a97829" stroke-width="2">
    <circle cx="160" cy="160" r="154"/><circle cx="160" cy="160" r="133"/><circle cx="160" cy="160" r="103"/><circle cx="160" cy="160" r="72"/><circle cx="160" cy="160" r="38"/>
    <path d="m160 116 10 29 31-9-20 25 21 23-31-7-9 30-10-30-31 9 20-25-21-23 31 7 9-29Z"/>
    <path d="M160 6v27M160 287v27M6 160h27M287 160h27M51 51l19 19M250 250l19 19M269 51l-19 19M70 250l-19 19"/>
    <path d="M66 122c17-27 39-47 67-59M254 122c-17-27-39-47-67-59M66 198c17 27 39 47 67 59M254 198c-17 27-39 47-67 59"/>
    <path d="m42 147 12-9 13 8 13-9 13 8M227 145l13-8 13 9 13-8 12 9M145 42l-8 12 9 13-8 13 9 13M145 227l-8 13 9 13-8 13 9 12"/>
  </g>
</svg>
